<svg version="1.2" baseProfile="tiny-ps" xmlns="http://www.w3.org/2000/svg" viewBox="0 0 100 125" width="100" height="125">
	<title>wishlist-icon-svg</title>
	<style>
		tspan { white-space:pre }
		.shp0 { fill: #ffffff } 
	</style>
	<g id="Layer">
		<path id="Layer" fill-rule="evenodd" class="shp0" d="M29.3 22.74C35.1 22.74 40.9 25.14 45.2 29.84L50 35.04L54.8 29.94C63.6 20.54 78 20.54 86.8 29.94C95.6 39.34 95.6 54.44 86.8 63.84C75.1 76.44 63.4 88.94 51.7 101.54L51.6 101.64C50.7 102.54 49.2 102.44 48.3 101.54L13.3 63.74C4.6 54.24 4.5 39.24 13.3 29.84C17.7 25.14 23.5 22.74 29.3 22.74ZM16.7 33.14C9.6 40.74 9.7 53.04 16.7 60.64L50 96.54C61.1 84.54 72.2 72.64 83.3 60.64C90.4 53.04 90.4 40.74 83.3 33.14C76.3 25.54 65.3 25.54 58.2 33.14L51.7 40.04L51.6 40.14C50.7 41.04 49.2 40.94 48.3 40.04L41.8 33.04C38.3 29.24 33.8 27.34 29.3 27.34C24.8 27.34 20.2 29.24 16.7 33.14Z" />
	</g>
</svg>