<?xml version="1.0" encoding="utf-8"?>
<!-- Generator: Adobe Illustrator 23.0.0, SVG Export Plug-In . SVG Version: 6.00 Build 0)  -->
<svg version="1.1"
	 id="Layer_1" xmlns:cc="http://creativecommons.org/ns#" xmlns:dc="http://purl.org/dc/elements/1.1/" xmlns:inkscape="http://www.inkscape.org/namespaces/inkscape" xmlns:rdf="http://www.w3.org/1999/02/22-rdf-syntax-ns#" xmlns:sodipodi="http://sodipodi.sourceforge.net/DTD/sodipodi-0.dtd" xmlns:svg="http://www.w3.org/2000/svg"
	 xmlns="http://www.w3.org/2000/svg" xmlns:xlink="http://www.w3.org/1999/xlink" x="0px" y="0px" viewBox="0 0 100 125"
	 style="enable-background:new 0 0 100 125;" xml:space="preserve">
<g transform="translate(0,-952.36218)">
	<path d="M29.3,975.1c-5.8,0-11.6,2.4-16,7.1c-8.8,9.4-8.7,24.4,0,33.9l35,37.8c0.9,0.9,2.4,1,3.3,0.1c0,0,0.1-0.1,0.1-0.1
		c11.7-12.6,23.4-25.1,35.1-37.7c8.8-9.4,8.8-24.5,0-33.9s-23.2-9.4-32,0l-4.8,5.1l-4.8-5.2C40.9,977.5,35.1,975.1,29.3,975.1
		L29.3,975.1z M29.3,979.7c4.5,0,9,1.9,12.5,5.7l6.5,7c0.9,0.9,2.4,1,3.3,0.1c0,0,0.1-0.1,0.1-0.1l6.5-6.9c7.1-7.6,18.1-7.6,25.1,0
		c7.1,7.6,7.1,19.9,0,27.5c-11.1,12-22.2,23.9-33.3,35.9l-33.3-35.9c-7-7.6-7.1-19.9,0-27.5C20.2,981.6,24.8,979.7,29.3,979.7z"/>
</g>
</svg>
