<svg width="36" height="36" viewBox="0 0 36 36" fill="none" xmlns="http://www.w3.org/2000/svg">
<path d="M18 19.125C20.7949 19.125 23.0625 16.8574 23.0625 14.0625C23.0625 11.2676 20.7949 9 18 9C15.2051 9 12.9375 11.2676 12.9375 14.0625C12.9375 16.8574 15.2051 19.125 18 19.125ZM22.5 20.25H20.5629C19.7824 20.6086 18.9141 20.8125 18 20.8125C17.0859 20.8125 16.2211 20.6086 15.4371 20.25H13.5C11.0145 20.25 9 22.2645 9 24.75V25.3125C9 26.2441 9.75586 27 10.6875 27H25.3125C26.2441 27 27 26.2441 27 25.3125V24.75C27 22.2645 24.9855 20.25 22.5 20.25Z" fill="white"/>
<circle cx="18" cy="18" r="17.5" stroke="white"/>
</svg>
