<?xml version="1.0" encoding="utf-8"?>
<!-- Generator: Adobe Illustrator 23.0.0, SVG Export Plug-In . SVG Version: 6.00 Build 0)  -->
<svg version="1.1" id="Layer_1" xmlns="http://www.w3.org/2000/svg" xmlns:xlink="http://www.w3.org/1999/xlink" x="0px" y="0px"
	 viewBox="0 0 100 125" style="enable-background:new 0 0 100 125;" xml:space="preserve">
<path d="M42.5,91C21.6,91,4.7,74,4.7,53.1c0-20.9,17-37.9,37.9-37.9s37.9,17,37.9,37.9C80.4,74,63.4,91,42.5,91z M42.5,23.6
	c-16.2,0-29.5,13.2-29.5,29.5c0,16.2,13.2,29.5,29.5,29.5S72,69.4,72,53.1C72,36.9,58.8,23.6,42.5,23.6z"/>
<path d="M94.4,109.2c-1.1,0-2.2-0.4-3-1.2L63.4,79.9c-1.6-1.6-1.6-4.3,0-6c1.6-1.6,4.3-1.6,6,0L97.4,102c1.6,1.6,1.6,4.3,0,6
	C96.6,108.8,95.5,109.2,94.4,109.2z"/>
</svg>
